<svg id="Layer_1" data-name="Layer 1" xmlns="http://www.w3.org/2000/svg" viewBox="0 0 616.56 471.09"><defs><style>.cls-1{fill:#f4f4f4;}.cls-2{fill:none;}.cls-2,.cls-5,.cls-9{stroke:#d8d8d8;stroke-miterlimit:10;}.cls-3,.cls-4{fill:#afbdc4;}.cls-4{fill-rule:evenodd;}.cls-5{fill:#e8f0fe;}.cls-6{font-size:14px;}.cls-10,.cls-12,.cls-6{fill:#3c4043;font-family:GoogleSans-Regular, Google Sans;}.cls-7{fill:#4285f4;}.cls-10,.cls-8{font-size:12px;}.cls-8,.cls-9{fill:#fff;}.cls-8{font-family:GoogleSans-Bold, Google Sans;font-weight:700;}.cls-11{fill:#d8d8d8;}.cls-12{font-size:18px;}.cls-13{fill:#5185eb;}.cls-14{fill:#719cee;}</style></defs><rect class="cls-1" x="5.01" y="24.55" width="606.42" height="422" rx="9"/><rect class="cls-2" x="5.01" y="24.55" width="606.42" height="422" rx="9"/><polyline class="cls-3" points="166.21 118.72 145.66 118.72 145.66 120.72 166.21 120.72"/><polygon class="cls-4" points="171.9 119.77 165.43 114 165.43 125.44 171.9 119.77"/><polyline class="cls-3" points="315.05 118.72 294.5 118.72 294.5 120.72 315.05 120.72"/><polygon class="cls-4" points="320.74 119.77 314.27 114 314.27 125.44 320.74 119.77"/><polyline class="cls-3" points="464.11 118.72 443.55 118.72 443.55 120.72 464.11 120.72"/><polygon class="cls-4" points="469.8 119.77 463.33 114 463.33 125.44 469.8 119.77"/><rect class="cls-5" x="26.03" y="381.68" width="564.68" height="45.02" rx="9.06"/><text class="cls-6" transform="translate(278.89 408.43)">Pipelines</text><rect class="cls-7" x="25.11" y="103.14" width="118.68" height="33.02" rx="9.06"/><rect class="cls-7" x="173.77" y="103.14" width="118.68" height="33.02" rx="9.06"/><text class="cls-8" transform="translate(218.64 123.09)">Build</text><path class="cls-9" d="M283.4,371.66l-100.54,0a9.06,9.06,0,0,1-9.07-9.06l0-206.89a9.07,9.07,0,0,1,9.06-9.07l100.55,0a9.07,9.07,0,0,1,9.07,9.07l0,206.89A9.07,9.07,0,0,1,283.4,371.66Z"/><text class="cls-10" transform="translate(203.06 171.72) rotate(-0.02)">Notebooks<tspan x="8.62" y="36">AutoML</tspan><tspan x="8.34" y="72">Training</tspan><tspan x="-10.85" y="108">Deep Learning </tspan><tspan x="2.78" y="126">VM Image</tspan><tspan x="-10.85" y="162">Deep Learning </tspan><tspan x="0.07" y="180">Containers</tspan></text><rect class="cls-7" x="322.67" y="103.18" width="118.68" height="33.02" rx="9.06"/><path class="cls-9" d="M432.3,371.66l-100.55,0a9.06,9.06,0,0,1-9.06-9.06l0-206.89a9.07,9.07,0,0,1,9.06-9.07l100.55,0a9.07,9.07,0,0,1,9.07,9.07l0,206.89A9.07,9.07,0,0,1,432.3,371.66Z"/><text class="cls-8" transform="translate(358.15 123.13)">Validate</text><text class="cls-10" transform="translate(340.98 171.79)">AI Explanations<tspan x="7.18" y="36">What-If Tool</tspan><tspan x="25.99" y="72">Vizier</tspan></text><rect class="cls-7" x="471.66" y="103.18" width="118.68" height="33.02" rx="9.06"/><path class="cls-9" d="M581.29,371.66l-100.55,0a9.07,9.07,0,0,1-9.07-9.06l0-206.89a9.06,9.06,0,0,1,9.06-9.07l100.55,0a9.08,9.08,0,0,1,9.07,9.07l0,206.89A9.06,9.06,0,0,1,581.29,371.66Z"/><text class="cls-8" transform="translate(510.57 123.13)">Deploy</text><text class="cls-10" transform="translate(503.17 171.79)">Prediction<tspan x="-3.5" y="36">TensorFlow</tspan><tspan x="-0.08" y="54">Enterprise</tspan></text><path class="cls-9" d="M134.75,371.66l-100.55,0a9.06,9.06,0,0,1-9.07-9.06l0-206.89a9.07,9.07,0,0,1,9.07-9.07l100.54,0a9.07,9.07,0,0,1,9.07,9.07l0,206.89A9.07,9.07,0,0,1,134.75,371.66Z"/><text class="cls-10" transform="translate(47.47 171.79)">Data Labeling<tspan x="11.37" y="36">BigQuery</tspan><tspan x="13.55" y="54">datasets</tspan><tspan x="-2.22" y="90">Cloud Storage</tspan></text><rect class="cls-7" x="29.61" y="103.14" width="109.68" height="33.02" rx="9.06"/><text class="cls-8" transform="translate(61.5 123.09)">Prepare</text><rect class="cls-11" x="5.01" y="81.85" width="606.54" height="1"/><text class="cls-12" transform="translate(280.36 59.35)">AI Platform </text><polygon class="cls-13" points="263.36 57.39 264.39 55.15 269.33 55.15 270.86 53.05 267.8 47.31 263.51 47.31 262.02 45.07 260.91 45.07 260.91 43.95 263.08 43.95 264.56 46.19 266.78 46.19 263.73 40.59 257.55 40.59 257.55 47.31 260.18 47.31 261.19 49.55 257.55 49.55 257.55 52.91 260.91 52.91 262.38 50.67 266.32 50.67 267.32 51.79 263.4 51.79 261.94 55.15 257.55 55.15 257.55 60.75 262.51 60.75 261.5 62.99 257.55 62.99 257.55 65.23 263.73 65.23 268.31 57.39 265.39 57.39 264.37 59.63 260.91 59.63 260.91 57.39 263.36 57.39"/><polygon class="cls-14" points="250.37 57.39 249.33 55.15 244.39 55.15 242.86 53.05 245.92 47.31 250.22 47.31 251.7 45.07 253.07 45.07 253.07 43.95 250.65 43.95 249.16 46.19 246.94 46.19 249.99 40.59 256.43 40.59 256.43 47.31 253.55 47.31 252.53 49.55 256.43 49.55 256.43 52.91 252.81 52.91 251.34 50.67 247.41 50.67 246.4 51.79 250.32 51.79 251.78 55.15 256.43 55.15 256.43 60.75 251.22 60.75 252.22 62.99 256.43 62.99 256.43 65.23 249.99 65.23 245.41 57.39 248.33 57.39 249.36 59.63 253.07 59.63 253.07 57.39 250.37 57.39"/></svg>