<svg version="1.2" baseProfile="tiny" xmlns="http://www.w3.org/2000/svg" viewBox="0 0 460.3 150.4" width="180.4"><path d="M157.7 65v16.1c0 .9-.7 1.6-1.6 1.6h-50.9c-.9 0-1.6-.7-1.6-1.6V3.8c0-.9.7-1.6 1.6-1.6h16.1c.9 0 1.6.7 1.6 1.6v57.9c0 .9.7 1.6 1.6 1.6h31.6c.9.1 1.6.8 1.6 1.7m8-7.2h17.7c.8 0 1.4.5 1.6 1.2.7 2.9 3.6 9.8 14.9 9.8 7.7 0 14.6-4.6 14.6-9.5 0-10.3-18.7-11-24-12.1-9.4-1.9-25.4-6.1-25.4-21.3C165.2 11.6 180.4 0 199 0c21.3 0 32.4 10.2 33.7 20.3.1 1-.6 1.9-1.7 1.9h-16.8c-.7 0-1.3-.4-1.6-1-.9-2.1-4.6-5.2-13.6-5.2-7.1 0-12.9 4.3-12.9 9.8 0 6.6 12.5 6.6 17 7.3 11.3 2.1 32.4 4.8 32.4 26.1 0 13.9-16.3 25.5-35.5 25.5-23.2 0-34.7-14.3-35.9-25.1-.2-.9.6-1.8 1.6-1.8m131.5-38.2h-15.5c-.9 0-1.7.8-1.7 1.7V81c0 .9-.8 1.7-1.7 1.7h-15.9c-.9 0-1.7-.8-1.7-1.7V21.3c0-.9-.8-1.7-1.7-1.7h-15.5c-.9 0-1.7-.8-1.7-1.7v-14c0-.9.8-1.7 1.7-1.7h53.7c.9 0 1.7.8 1.7 1.7v13.9c0 1-.7 1.8-1.7 1.8m52.6 34l-9.4-20.3c-.6-1.3-2.4-1.3-3 0l-8.9 20.3c-.5 1.1.3 2.3 1.5 2.3h18.4c1.1 0 1.9-1.2 1.4-2.3m7.6 18h-37c-.6 0-1.2.4-1.5.9l-4.6 9.2c-.3.6-.8.9-1.5.9h-18.1c-1.2 0-2-1.3-1.5-2.3l38.4-77.2c.3-.6.8-.9 1.5-.9h12.6c.6 0 1.2.4 1.5.9l36.9 77.2c.5 1.1-.3 2.3-1.5 2.3h-17.8c-.6 0-1.2-.4-1.5-.9l-4.5-9.2c-.2-.5-.8-.9-1.4-.9m75.3-52H417c-.9 0-1.6.7-1.6 1.6v59.9c0 .9-.7 1.6-1.6 1.6h-16.1c-.9 0-1.6-.7-1.6-1.6V21.2c0-.9-.7-1.6-1.6-1.6h-15.7c-.9 0-1.6-.7-1.6-1.6V3.8c0-.9.7-1.6 1.6-1.6h53.8c.9 0 1.6.7 1.6 1.6v14.1c.1.9-.6 1.7-1.5 1.7M1.7 2.1h22c.4 0 .7.2.9.4l19.9 23.8c.5.6 1.3.6 1.8 0L66.2 2.6c.2-.3.6-.4.9-.4h22c1 0 1.6 1.2.9 2L58.4 41.5c-.4.5-.4 1.1 0 1.5L90 80.5c.6.8.1 2-.9 2h-22c-.4 0-.7-.2-.9-.4L.8 4.1c-.7-.8-.1-2 .9-2m31.9 47.1c-.9-.9-2.1-1.7-3.1-2.3-.5-.4-1.1-.3-1.5.1L.3 80.5c-.7.8-.1 2 .9 2h22.6c.4 0 .7-.2.9-.4 4.5-5.5 8.3-10.1 8.4-10.3 6-6.7 9.2-14.2.5-22.6m160.8 63.2h3v12.4c1.8-3.1 5.1-4.9 8.8-4.9 6.2 0 11.1 4.6 11.1 11.4 0 6.5-4.7 11.5-11.2 11.5-4.1 0-7.2-2-8.8-5.1v4.5h-2.9v-29.8zm19.9 18.9c0-4.9-3.7-8.6-8.6-8.6-5 0-8.6 3.9-8.6 8.6 0 4.7 3.4 8.7 8.4 8.7 5.9 0 8.8-4.4 8.8-8.7zm12.5 10.5l-8.4-21.2h3.2l6.8 17.4 7-17.4h3.2l-12.3 29.8h-3.2zm25.3.4h-3.6l12.4-29.8h3.2l12.3 29.8h-3.6l-3.5-8.4h-13.9l-3.3 8.4zm10.4-26l-5.9 14.9h11.9l-6-14.9zm38.9 26h-2.9v-4.5c-1.5 2.9-4.4 5.1-8.9 5.1-6.9 0-11.2-5.4-11.2-11.5 0-6.4 4.7-11.4 11.1-11.4 4.7 0 7.9 2.7 8.8 5v-12.5h3l.1 29.8zm-20.1-10.8c0 4.3 3.1 8.6 8.7 8.6 2.4 0 4.6-1 6.2-2.5 1.6-1.6 2.5-3.8 2.4-6.2 0-2.5-.9-4.5-2.5-6.1-1.5-1.6-3.7-2.5-6.1-2.5-5 0-8.7 3.8-8.7 8.7zm47.6 10.8H326v-4.5c-1.5 2.9-4.4 5.1-8.9 5.1-6.9 0-11.2-5.4-11.2-11.5 0-6.4 4.7-11.4 11.1-11.4 4.7 0 7.9 2.7 8.8 5v-12.5h3l.1 29.8zm-20.1-10.8c0 4.3 3.1 8.6 8.7 8.6 2.4 0 4.6-1 6.1-2.5 1.6-1.6 2.5-3.8 2.4-6.2 0-2.5-.9-4.5-2.5-6.1-1.5-1.6-3.7-2.5-6.1-2.5-4.9 0-8.6 3.8-8.6 8.7zm25.9-19h3v4.1h-3v-4.1zm0 8.2h3v21.6h-3v-21.6zm8.8 0h2.8v3.9c1.2-2.8 4.2-4.5 8-4.5 6.7.1 9.1 4.7 9.1 9.9v12.3h-2.9v-11.7c0-4.7-2.1-7.8-7-7.8-4.5 0-7 2.7-7 7.2v12.2h-3v-21.5zm35.4 5.4c0-2.3-1.5-3.6-3.7-3.6-2.4 0-3.8 1.6-3.7 3.5.1 2 1.6 2.9 4.3 3.7 3.1.8 6.6 1.7 6.7 6.4.2 4-3.1 6.9-7.2 6.9-3.5 0-7.4-2.2-7.4-6.8h2.9c.1 3 2.3 4.3 4.5 4.3 2.5 0 4.2-1.9 4.2-4.1-.1-2.5-1.7-3.5-5.4-4.5-3.1-.9-5.5-2.2-5.6-5.6 0-3.9 3.1-6.2 6.8-6.2 3 0 6.4 1.6 6.6 6h-3zm7 5.3c0-6 4.5-11.4 11.5-11.4s11.5 5.3 11.5 11.4-4.5 11.4-11.5 11.4-11.5-5.3-11.5-11.4zm3 .1c0 4.9 3.7 8.6 8.5 8.6s8.5-3.7 8.5-8.6c0-4.9-3.7-8.6-8.5-8.6-4.8-.1-8.5 3.6-8.5 8.6zm25-8.5h-3.2v-2.4h3.2v-1.8c0-6.7 5.3-6.9 7.6-6.9v2.4c-1.5.1-4.7.1-4.7 4.8v1.5h4.7v2.4h-4.7v19.3h-2.9v-19.3zm12.4 0H422v-2.3h4.3v-8.2h2.9v8.2h4.8v2.3h-4.8v19.3h-2.9z" stroke="#e9782e" fill="#e9782e"/></svg>